HIERARCHY
ROOT Hips
{
  OFFSET 77.2624 94.2827 16.9493
  CHANNELS 6 Xposition Yposition Zposition Zrotation Xrotation Yrotation
  JOINT spine
  {
    OFFSET 0 7.80059 0.448573
    CHANNELS 3 Zrotation Xrotation Yrotation
    JOINT spine1
    {
      OFFSET 0 10.1364 0
      CHANNELS 3 Zrotation Xrotation Yrotation
      JOINT spine2
      {
        OFFSET 0 9.71251 0
        CHANNELS 3 Zrotation Xrotation Yrotation
        JOINT Neck
        {
          OFFSET 0 24.9361 1.18887
          CHANNELS 3 Zrotation Xrotation Yrotation
          JOINT Head
          {
            OFFSET 0 7.53384 0
            CHANNELS 3 Zrotation Xrotation Yrotation
            End Site
            {
              OFFSET 0 18.2361 -6.01402
            }
          }
        }
        JOINT RightShoulder
        {
          OFFSET -4.08965 10.4888 -0.569457
          CHANNELS 3 Zrotation Xrotation Yrotation
          JOINT RightArm
          {
            OFFSET 0 13.757 0
            CHANNELS 3 Zrotation Xrotation Yrotation
            JOINT RightArmRoll
            {
              OFFSET 0 6.94478 0
              CHANNELS 3 Zrotation Xrotation Yrotation
              JOINT RightForeArm
              {
                OFFSET 0 20.2277 0
                CHANNELS 3 Zrotation Xrotation Yrotation
                JOINT RightForeArmRoll
                {
                  OFFSET 0 7.79313 0
                  CHANNELS 3 Zrotation Xrotation Yrotation
                  JOINT RightHand
                  {
                    OFFSET 0 15.6391 0
                    CHANNELS 3 Zrotation Xrotation Yrotation
                    End Site
                    {
                      OFFSET 0 0 0
                    }
                  }
                }
              }
            }
          }
        }
        JOINT LeftShoulder
        {
          OFFSET 4.08965 10.4888 -0.569457
          CHANNELS 3 Zrotation Xrotation Yrotation
          JOINT LeftArm
          {
            OFFSET 0 13.757 0
            CHANNELS 3 Zrotation Xrotation Yrotation
            JOINT LeftArmRoll
            {
              OFFSET 0 6.94478 0
              CHANNELS 3 Zrotation Xrotation Yrotation
              JOINT LeftForeArm
              {
                OFFSET 0 20.2277 0
                CHANNELS 3 Zrotation Xrotation Yrotation
                JOINT LeftForeArmRoll
                {
                  OFFSET 0 7.79312 0
                  CHANNELS 3 Zrotation Xrotation Yrotation
                  JOINT LeftHand
                  {
                    OFFSET 0 15.6391 0
                    CHANNELS 3 Zrotation Xrotation Yrotation
                    End Site
                    {
                      OFFSET 0 0 0
                    }
                  }
                }
              }
            }
          }
        }
      }
    }
  }
  JOINT RightUpLeg
  {
    OFFSET -6.91415 -1.26788 -1.06358
    CHANNELS 3 Zrotation Xrotation Yrotation
    JOINT RightUpLegRoll
    {
      OFFSET 0 18.3378 0
      CHANNELS 3 Zrotation Xrotation Yrotation
      JOINT RightLeg
      {
        OFFSET 0 -22.7085 0
        CHANNELS 3 Zrotation Xrotation Yrotation
        JOINT RightLegRoll
        {
          OFFSET 0 22.7828 0
          CHANNELS 3 Zrotation Xrotation Yrotation
          JOINT RightFoot
          {
            OFFSET 0 18.9629 0
            CHANNELS 3 Zrotation Xrotation Yrotation
            JOINT RightToeBase
            {
              OFFSET 0 15.852 0
              CHANNELS 3 Zrotation Xrotation Yrotation
              End Site
              {
                OFFSET 0.00671906 7.67701 -0.884893
              }
            }
          }
        }
      }
    }
  }
  JOINT LeftUpLeg
  {
    OFFSET 6.91415 -1.26788 -1.06358
    CHANNELS 3 Zrotation Xrotation Yrotation
    JOINT LeftUpLegRoll
    {
      OFFSET 0 18.3379 0
      CHANNELS 3 Zrotation Xrotation Yrotation
      JOINT LeftLeg
      {
        OFFSET 0 22.7084 0
        CHANNELS 3 Zrotation Xrotation Yrotation
        JOINT LeftLegRoll
        {
          OFFSET 0 22.9934 0
          CHANNELS 3 Zrotation Xrotation Yrotation
          JOINT LeftFoot
          {
            OFFSET 0 18.7522 0
            CHANNELS 3 Zrotation Xrotation Yrotation
            JOINT LeftToeBase
            {
              OFFSET 0 15.852 0
              CHANNELS 3 Zrotation Xrotation Yrotation
              End Site
              {
                OFFSET -0.030112 7.67701 -0.884893
              }
            }
          }
        }
      }
    }
  }
}
MOTION
Frames: 12
Frame Time: 0.00208333
47.6148 94.1512 10.0565 -0.821039 -4.26367 -4.96867 -0.0306206 1.10534 0.170287 -0.0716978 6.19527 0.353547 -0.0761594 7.84034 0.355343 -13.2024 5.09991 0.716625 28.134 -2.44001 1.5283 35.159 -4.69945 -1.02788 -176.347 36.9316 -103.671 4.60119e-006 2.62085e-006 1.83556e-006 45.28 26.4095 -8.60734 -1.79811e-005 -3.68023e-005 -3.00743 8.03085 -4.95143 0.697347 -60.0958 -4.43261 2.83722 -103.072 18.5661 -0.715973 2.67383e-006 2.76349e-007 7.73348e-007 -9.53944 14.3808 2.36852 8.89647e-006 -6.62491e-006 3.00409 -8.02902 -4.95143 -0.697687 179.511 3.98334 -1.01809 180 7.01554e-015 178.956 178.482 12.4128 179.57 3.26106e-006 2.67689e-006 0.274639 -19.242 69.2883 20.6485 8.13301 25.2329 -3.48625 -178.016 2.24565 5.28958 4.54188e-006 -4.6773e-006 -1.26996 -4.92571 -13.0203 -0.304908 5.31032e-007 -5.43449e-006 -0.250835 23.5424 71.177 -22.7929 -8.13629 25.2327 3.48766 
47.6236 94.1511 10.0569 -0.817785 -4.25953 -4.94496 -0.0306244 1.10557 0.170232 -0.071347 6.19703 0.352886 -0.0757912 7.84211 0.35467 -13.2019 5.06022 0.696008 28.1373 -2.38165 1.49805 35.1409 -4.69814 -1.02493 -176.334 36.9164 -103.599 4.60119e-006 2.62085e-006 1.83556e-006 45.2592 26.3867 -8.60078 -1.79811e-005 -3.68023e-005 -3.00743 8.03085 -4.95143 0.697347 -60.1025 -4.43406 2.83857 -102.966 18.544 -0.680549 2.67383e-006 2.76349e-007 7.73348e-007 -9.60489 14.4786 2.3883 8.89647e-006 -6.62491e-006 3.00409 -8.02902 -4.95143 -0.697687 179.508 3.97864 -1.01683 180 7.01554e-015 178.956 178.483 12.4013 179.57 3.26106e-006 2.67689e-006 0.273691 -19.2298 69.2765 20.6376 8.13301 25.2329 -3.48625 -178.017 2.25741 5.28953 4.54188e-006 -4.6773e-006 -1.26992 -4.92657 -13.0268 -0.30509 5.31032e-007 -5.43449e-006 -0.25082 23.5458 71.1793 -22.7962 -8.13629 25.2327 3.48766 
47.6276 94.1511 10.0571 -0.814228 -4.25515 -4.92159 -0.0306301 1.10572 0.170179 -0.0709786 6.19869 0.352209 -0.0754044 7.84377 0.353981 -13.2026 5.01896 0.674985 28.1411 -2.32089 1.4668 35.1211 -4.69672 -1.02171 -176.319 36.9006 -103.525 4.60119e-006 2.62085e-006 1.83556e-006 45.2381 26.3599 -8.59245 -1.79811e-005 -3.68023e-005 -3.00743 8.03085 -4.95143 0.697347 -60.1099 -4.4354 2.8399 -102.86 18.5226 -0.646163 2.67383e-006 2.76349e-007 7.73348e-007 -9.66981 14.5743 2.40768 8.89647e-006 -6.62491e-006 3.00409 -8.02902 -4.95143 -0.697687 179.505 3.97413 -1.01538 180 7.01554e-015 178.956 178.484 12.3898 179.569 3.26106e-006 2.67689e-006 0.272769 -19.2178 69.2652 20.6272 8.13301 25.2329 -3.48625 -178.018 2.26875 5.28977 4.54188e-006 -4.6773e-006 -1.26986 -4.92739 -13.032 -0.305216 5.31032e-007 -5.43449e-006 -0.250798 23.5489 71.1813 -22.7991 -8.13629 25.2327 3.48766 
47.6266 94.1525 10.0518 -0.810459 -4.2506 -4.89845 -0.030637 1.10581 0.170128 -0.070598 6.20027 0.351521 -0.0750046 7.84535 0.353279 -13.204 4.97661 0.653678 28.1452 -2.25846 1.43485 35.1 -4.69523 -1.01831 -176.302 36.8844 -103.451 4.60119e-006 2.62085e-006 1.83556e-006 45.2168 26.3302 -8.5829 -1.79811e-005 -3.68023e-005 -3.00743 8.03085 -4.95143 0.697347 -60.1177 -4.43668 2.84122 -102.755 18.5017 -0.612505 2.67383e-006 2.76349e-007 7.73348e-007 -9.73438 14.6685 2.42677 8.89647e-006 -6.62491e-006 3.00409 -8.02902 -4.95143 -0.697687 179.501 3.96974 -1.01379 180 7.01554e-015 178.956 178.485 12.3781 179.569 3.26106e-006 2.67689e-006 0.271865 -19.206 69.2542 20.617 8.13301 25.2329 -3.48625 -178.02 2.27978 5.29021 4.54188e-006 -4.6773e-006 -1.26979 -4.92818 -13.0364 -0.305304 5.31032e-007 -5.43449e-006 -0.250771 23.5518 71.1831 -22.8016 -8.13629 25.2327 3.48766 
47.6284 94.1518 10.065 -0.806572 -4.24596 -4.87546 -0.0306447 1.10588 0.170076 -0.0702104 6.20181 0.350826 -0.0745973 7.84689 0.352571 -13.2059 4.93363 0.632211 28.1495 -2.19507 1.4025 35.0782 -4.69371 -1.0148 -176.285 36.868 -103.376 4.60119e-006 2.62085e-006 1.83556e-006 45.1954 26.2988 -8.57265 -1.79811e-005 -3.68023e-005 -3.00743 8.03085 -4.95143 0.697347 -60.1258 -4.43791 2.84254 -102.649 18.4812 -0.579267 2.67383e-006 2.76349e-007 7.73348e-007 -9.79877 14.762 2.44572 8.89647e-006 -6.62491e-006 3.00409 -8.02902 -4.95143 -0.697687 179.497 3.96542 -1.01213 180 7.01554e-015 178.956 178.485 12.3665 179.568 3.26106e-006 2.67689e-006 0.270971 -19.1943 69.2433 20.607 8.13301 25.2329 -3.48625 -178.022 2.29064 5.29077 4.54188e-006 -4.6773e-006 -1.26971 -4.92894 -13.0404 -0.305369 5.31032e-007 -5.43449e-006 -0.250741 23.5545 71.1847 -22.804 -8.13629 25.2327 3.48766 
47.63 94.146 10.0605 -0.802657 -4.24129 -4.8525 -0.0306526 1.10593 0.170025 -0.069821 6.20334 0.35013 -0.0741881 7.84842 0.351861 -13.208 4.89048 0.610706 28.1539 -2.13144 1.37006 35.0562 -4.69217 -1.01127 -176.267 36.8514 -103.302 4.60119e-006 2.62085e-006 1.83556e-006 45.174 26.267 -8.56222 -1.79811e-005 -3.68023e-005 -3.00743 8.03085 -4.95143 0.697347 -60.1339 -4.43913 2.84385 -102.544 18.4606 -0.546139 2.67383e-006 2.76349e-007 7.73348e-007 -9.86316 14.8553 2.46464 8.89647e-006 -6.62491e-006 3.00409 -8.02902 -4.95143 -0.697687 179.493 3.96111 -1.01045 180 7.01554e-015 178.956 178.486 12.3548 179.568 3.26106e-006 2.67689e-006 0.27008 -19.1826 69.2325 20.597 8.13301 25.2329 -3.48625 -178.024 2.30146 5.29136 4.54188e-006 -4.6773e-006 -1.26963 -4.9297 -13.0442 -0.305429 5.31032e-007 -5.43449e-006 -0.25071 23.5573 71.1863 -22.8064 -8.13629 25.2327 3.48766 
47.6307 94.1458 10.0614 -0.798808 -4.23668 -4.82947 -0.0306602 1.10601 0.169974 -0.069435 6.20489 0.349437 -0.0737826 7.84996 0.351155 -13.2098 4.84766 0.589286 28.1584 -2.06829 1.33782 35.0346 -4.69065 -1.00778 -176.25 36.8348 -103.228 4.60119e-006 2.62085e-006 1.83556e-006 45.1526 26.2361 -8.55216 -1.79811e-005 -3.68023e-005 -3.00743 8.03085 -4.95143 0.697347 -60.1419 -4.44038 2.84517 -102.439 18.44 -0.512814 2.67383e-006 2.76349e-007 7.73348e-007 -9.92774 14.9489 2.48367 8.89647e-006 -6.62491e-006 3.00409 -8.02902 -4.95143 -0.697687 179.489 3.95677 -1.0088 180 7.01554e-015 178.956 178.487 12.3431 179.567 3.26106e-006 2.67689e-006 0.269183 -19.1709 69.2216 20.587 8.13301 25.2329 -3.48625 -178.025 2.31237 5.29189 4.54188e-006 -4.6773e-006 -1.26955 -4.93047 -13.0482 -0.3055 5.31032e-007 -5.43449e-006 -0.250681 23.56 71.1879 -22.8088 -8.13629 25.2327 3.48766 
47.6324 94.1512 10.0604 -0.795116 -4.23217 -4.80627 -0.0306668 1.10612 0.169922 -0.0690577 6.20649 0.348752 -0.0733863 7.85157 0.350457 -13.2112 4.80561 0.568073 28.1627 -2.00632 1.30609 35.0138 -4.68918 -1.00443 -176.233 36.8183 -103.154 4.60119e-006 2.62085e-006 1.83556e-006 45.1314 26.2072 -8.54299 -1.79811e-005 -3.68023e-005 -3.00743 8.03085 -4.95143 0.697347 -60.1496 -4.44167 2.84649 -102.333 18.4189 -0.478984 2.67383e-006 2.76349e-007 7.73348e-007 -9.99268 15.0436 2.50295 8.89647e-006 -6.62491e-006 3.00409 -8.02902 -4.95143 -0.697687 179.485 3.95235 -1.00725 180 7.01554e-015 178.956 178.488 12.3315 179.566 3.26106e-006 2.67689e-006 0.268274 -19.1591 69.2104 20.5768 8.13301 25.2329 -3.48625 -178.027 2.32349 5.29228 4.54188e-006 -4.6773e-006 -1.26948 -4.93126 -13.0529 -0.305599 5.31032e-007 -5.43449e-006 -0.250655 23.563 71.1898 -22.8115 -8.13629 25.2327 3.48766 
47.631 94.1489 10.0595 -0.791673 -4.22786 -4.7828 -0.0306719 1.10629 0.169868 -0.0686944 6.20818 0.34808 -0.0730048 7.85326 0.349772 -13.2117 4.76482 0.547191 28.1667 -1.94627 1.27516 34.9945 -4.6878 -1.0013 -176.219 36.8019 -103.081 4.60119e-006 2.62085e-006 1.83556e-006 45.1105 26.1815 -8.53523 -1.79811e-005 -3.68023e-005 -3.00743 8.03085 -4.95143 0.697347 -60.1568 -4.44305 2.84783 -102.227 18.3973 -0.44434 2.67383e-006 2.76349e-007 7.73348e-007 -10.0582 15.1399 2.5226 8.89647e-006 -6.62491e-006 3.00409 -8.02902 -4.95143 -0.697687 179.482 3.94778 -1.00586 180 7.01554e-015 178.956 178.489 12.3199 179.566 3.26106e-006 2.67689e-006 0.267344 -19.1471 69.199 20.5663 8.13301 25.2329 -3.48625 -178.028 2.33495 5.29243 4.54188e-006 -4.6773e-006 -1.26943 -4.93209 -13.0585 -0.305742 5.31032e-007 -5.43449e-006 -0.250636 23.5662 71.1919 -22.8145 -8.13629 25.2327 3.48766 
47.6349 94.1385 10.0538 -0.78857 -4.2238 -4.75895 -0.0306749 1.10655 0.169813 -0.0683502 6.20999 0.347426 -0.0726438 7.85507 0.349106 -13.2109 4.72575 0.52676 28.1705 -1.88884 1.24534 34.9771 -4.68653 -0.99845 -176.207 36.7858 -103.01 4.60119e-006 2.62085e-006 1.83556e-006 45.0899 26.1604 -8.52942 -1.79811e-005 -3.68023e-005 -3.00743 8.03085 -4.95143 0.697347 -60.1633 -4.44453 2.84919 -102.121 18.3749 -0.408576 2.67383e-006 2.76349e-007 7.73348e-007 -10.1244 15.2384 2.54275 8.89647e-006 -6.62491e-006 3.00409 -8.02902 -4.95143 -0.697687 179.479 3.94301 -1.00468 180 7.01554e-015 178.956 178.49 12.3085 179.565 3.26106e-006 2.67689e-006 0.266386 -19.1349 69.1871 20.5554 8.13301 25.2329 -3.48625 -178.029 2.34689 5.29227 4.54188e-006 -4.6773e-006 -1.2694 -4.93298 -13.0655 -0.305945 5.31032e-007 -5.43449e-006 -0.250624 23.5697 71.1944 -22.8179 -8.13629 25.2327 3.48766 
47.6342 94.1418 10.0479 -0.785899 -4.22007 -4.73463 -0.0306754 1.10692 0.169755 -0.0680305 6.21195 0.346794 -0.0723087 7.85703 0.348464 -13.2087 4.68888 0.506903 28.1738 -1.83476 1.21693 34.9622 -4.68541 -0.995975 -176.197 36.7701 -102.94 4.60119e-006 2.62085e-006 1.83556e-006 45.0698 26.145 -8.52606 -1.79811e-005 -3.68023e-005 -3.00743 8.03085 -4.95143 0.697347 -60.1688 -4.44616 2.85056 -102.015 18.3514 -0.371384 2.67383e-006 2.76349e-007 7.73348e-007 -10.1916 15.3397 2.56355 8.89647e-006 -6.62491e-006 3.00409 -8.02902 -4.95143 -0.697687 179.477 3.938 -1.00376 180 7.01554e-015 178.956 178.49 12.2972 179.565 3.26106e-006 2.67689e-006 0.265391 -19.1224 69.1746 20.544 8.13301 25.2329 -3.48625 -178.029 2.35942 5.2917 4.54188e-006 -4.6773e-006 -1.26939 -4.93394 -13.0741 -0.306227 5.31032e-007 -5.43449e-006 -0.250622 23.5736 71.1974 -22.822 -8.13629 25.2327 3.48766 
47.6347 94.1405 10.0482 -0.783753 -4.21674 -4.70974 -0.0306727 1.10742 0.169693 -0.0677404 6.2141 0.34619 -0.0720051 7.85917 0.347851 -13.2046 4.65467 0.487743 28.1765 -1.78473 1.19023 34.9503 -4.68446 -0.993951 -176.191 36.7549 -102.872 4.60119e-006 2.62085e-006 1.83556e-006 45.0501 26.1365 -8.5257 -1.79811e-005 -3.68023e-005 -3.00743 8.03085 -4.95143 0.697347 -60.1733 -4.44795 2.85196 -101.908 18.3266 -0.332459 2.67383e-006 2.76349e-007 7.73348e-007 -10.2599 15.4444 2.58512 8.89647e-006 -6.62491e-006 3.00409 -8.02902 -4.95143 -0.697687 179.476 3.93269 -1.00317 180 7.01554e-015 178.956 178.491 12.2861 179.565 3.26106e-006 2.67689e-006 0.264353 -19.1095 69.1614 20.5319 8.13301 25.2329 -3.48625 -178.028 2.37269 5.29064 4.54188e-006 -4.6773e-006 -1.26942 -4.93497 -13.0848 -0.306602 5.31032e-007 -5.43449e-006 -0.250632 23.578 71.201 -22.8267 -8.13629 25.2327 3.48766 
